<?xml version="1.0" encoding="UTF-8" standalone="no"?>
<!-- Created with Inkscape (http://www.inkscape.org/) -->

<svg
   xmlns:dc="http://purl.org/dc/elements/1.1/"
   xmlns:cc="http://creativecommons.org/ns#"
   xmlns:rdf="http://www.w3.org/1999/02/22-rdf-syntax-ns#"
   xmlns:svg="http://www.w3.org/2000/svg"
   xmlns="http://www.w3.org/2000/svg"
   xmlns:sodipodi="http://sodipodi.sourceforge.net/DTD/sodipodi-0.dtd"
   xmlns:inkscape="http://www.inkscape.org/namespaces/inkscape"
   id="svg2"
   version="1.1"
   inkscape:version="0.48.4 r9939"
   width="200"
   height="200"
   sodipodi:docname="Voice of Han  Broadcasting Network Seal.svg">
  <metadata
     id="metadata8">
    <rdf:RDF>
      <cc:Work
         rdf:about="">
        <dc:format>image/svg+xml</dc:format>
        <dc:type
           rdf:resource="http://purl.org/dc/dcmitype/StillImage" />
        <dc:title />
      </cc:Work>
    </rdf:RDF>
  </metadata>
  <defs
     id="defs6" />
  <sodipodi:namedview
     pagecolor="#ffffff"
     bordercolor="#666666"
     borderopacity="1"
     objecttolerance="10"
     gridtolerance="10"
     guidetolerance="10"
     inkscape:pageopacity="0"
     inkscape:pageshadow="2"
     inkscape:window-width="1920"
     inkscape:window-height="1017"
     id="namedview4"
     showgrid="false"
     inkscape:zoom="0.94211577"
     inkscape:cx="-0.47153359"
     inkscape:cy="154.06978"
     inkscape:window-x="-8"
     inkscape:window-y="-8"
     inkscape:window-maximized="1"
     inkscape:current-layer="svg2"
     fit-margin-top="0"
     fit-margin-left="0"
     fit-margin-right="0"
     fit-margin-bottom="0" />
  <g
     id="g3078"
     transform="matrix(0.4,0,0,0.4,6.3125551e-7,-0.19999972)">
    <path
       transform="matrix(4.5294027,0,0,4.5077311,798.07687,-387.05981)"
       d="m -65.809311,141.43697 c 0,30.62986 -24.711605,55.46027 -55.194919,55.46027 -30.48331,0 -55.19491,-24.83041 -55.19491,-55.46027 0,-30.62987 24.7116,-55.460278 55.19491,-55.460278 30.483314,0 55.194919,24.830408 55.194919,55.460278 z"
       sodipodi:ry="55.460274"
       sodipodi:rx="55.194916"
       sodipodi:cy="141.43697"
       sodipodi:cx="-121.00423"
       id="path2987"
       style="fill:#9ad9e8;fill-opacity:1;stroke:none"
       sodipodi:type="arc" />
    <path
       sodipodi:type="arc"
       style="fill:#ffffff;fill-opacity:1;stroke:none"
       id="path3012"
       sodipodi:cx="-121.00423"
       sodipodi:cy="141.43697"
       sodipodi:rx="55.194916"
       sodipodi:ry="55.460274"
       d="m -65.809311,141.43697 c 0,30.62986 -24.711605,55.46027 -55.194919,55.46027 -30.48331,0 -55.19491,-24.83041 -55.19491,-55.46027 0,-30.62987 24.7116,-55.460278 55.19491,-55.460278 30.483314,0 55.194919,24.830408 55.194919,55.460278 z"
       transform="matrix(3.7322278,0,0,3.7143704,701.61534,-230.84928)" />
    <path
       sodipodi:type="arc"
       style="fill:#9ad9e8;fill-opacity:1;stroke:none"
       id="path3010"
       sodipodi:cx="-121.00423"
       sodipodi:cy="141.43697"
       sodipodi:rx="55.194916"
       sodipodi:ry="55.460274"
       d="m -65.809311,141.43697 c 0,30.62986 -24.711605,55.46027 -55.194919,55.46027 -30.48331,0 -55.19491,-24.83041 -55.19491,-55.46027 0,-30.62987 24.7116,-55.460278 55.19491,-55.460278 30.483314,0 55.194919,24.830408 55.194919,55.460278 z"
       transform="matrix(3.1977583,0,0,3.1824581,636.94227,-126.11721)" />
    <path
       transform="matrix(2.5862889,0,0,2.5739145,562.95189,-6.2966594)"
       d="m -65.809311,141.43697 c 0,30.62986 -24.711605,55.46027 -55.194919,55.46027 -30.48331,0 -55.19491,-24.83041 -55.19491,-55.46027 0,-30.62987 24.7116,-55.460278 55.19491,-55.460278 30.483314,0 55.194919,24.830408 55.194919,55.460278 z"
       sodipodi:ry="55.460274"
       sodipodi:rx="55.194916"
       sodipodi:cy="141.43697"
       sodipodi:cx="-121.00423"
       id="path3004"
       style="fill:#ffffff;fill-opacity:1;stroke:none"
       sodipodi:type="arc" />
    <path
       transform="matrix(2.1288193,0,0,2.1186336,507.59613,83.346893)"
       d="m -65.809311,141.43697 c 0,30.62986 -24.711605,55.46027 -55.194919,55.46027 -30.48331,0 -55.19491,-24.83041 -55.19491,-55.46027 0,-30.62987 24.7116,-55.460278 55.19491,-55.460278 30.483314,0 55.194919,24.830408 55.194919,55.460278 z"
       sodipodi:ry="55.460274"
       sodipodi:rx="55.194916"
       sodipodi:cy="141.43697"
       sodipodi:cx="-121.00423"
       id="path3002"
       style="fill:#9ad9e8;fill-opacity:1;stroke:none"
       sodipodi:type="arc" />
    <path
       d="m 181.17038,69.243153 c 1.63617,-0.600703 3.95423,-0.750906 6.95418,-0.450499 2.9997,0.300524 6.13589,1.652538 9.40854,4.05581 3.27243,2.403555 5.1814,4.957197 5.72695,7.660891 0.54528,2.704033 0.54528,5.257675 0,7.660939 1.09072,-0.600699 2.72699,-0.901166 4.9088,-0.901283 1.63613,0.60099 2.9997,1.802681 4.09069,3.605141 1.09072,2.403554 1.22707,4.506526 0.40894,6.308986 -0.81829,1.80268 -2.04553,3.004422 -3.68163,3.605122 -2.72727,1.8027 -5.99981,3.90573 -9.81764,6.30899 -3.81809,2.40357 -7.90877,5.40782 -12.27203,9.01284 -4.90893,3.00438 -9.13595,5.70823 -12.68108,8.11155 -3.5454,2.40351 -6.68154,4.50653 -9.40861,6.30899 1.0908,1.1e-4 2.04528,0.15056 2.86352,0.4505 0.81803,0.30052 1.77252,0.75119 2.86345,1.35195 1.09073,0.60093 2.04526,1.0516 2.8635,1.3519 0.81804,0.30052 1.49977,0.7512 2.04531,1.35195 1.63617,1.1e-4 4.09059,-0.60075 7.36323,-1.80256 2.727,-0.60077 5.99953,-1.50205 9.81762,-2.70386 3.81783,-0.60075 7.22672,-0.60075 10.22672,0 2.99969,0.60093 5.59046,1.80269 7.77226,3.60513 -1.5e-4,2.40351 -0.54554,4.80694 -1.63625,7.21027 -1.09099,2.4035 -3.27271,4.80695 -6.54509,7.21027 -3.27265,2.40351 -6.27251,4.20607 -8.9995,5.40771 -2.72726,1.2018 -4.90892,2.4035 -6.54508,3.60514 0.54528,5e-5 1.09071,5e-5 1.63627,0 0.54528,5e-5 1.36341,0.30052 2.4544,0.90128 0.54529,6e-5 1.09073,0.14996 1.63627,0.45049 0.54529,0.30052 1.09074,0.7512 1.63628,1.35196 -0.54554,1.80263 -1.36368,3.60519 -2.45441,5.4077 -1.63638,1.80262 -3.8181,3.30478 -6.54509,4.50642 -2.72721,1.80262 -5.18161,3.00432 -7.36322,3.60512 -2.18182,0.60094 -3.81809,1.20177 -4.90881,1.80258 -1e-4,0.60094 -1e-4,1.05154 0,1.35191 -1e-4,0.30052 -1e-4,0.75113 0,1.35194 -1e-4,0.60093 -1e-4,1.20175 0,1.80257 -1e-4,0.60092 0.13614,0.90134 0.40894,0.90128 0.27279,6e-5 1.22706,-0.30053 2.86345,-0.90128 1.63616,6e-5 3.54512,-0.30053 5.72694,-0.90129 2.18161,-0.60082 3.95423,-1.20163 5.31791,-1.80257 1.36342,-0.60081 2.5906,-1.20162 3.68159,-1.80256 3.81782,1.80262 5.86319,4.20606 6.13605,7.21028 0.27227,3.0043 -2.72726,6.15883 -8.99951,9.46343 -6.27248,3.30479 -11.86309,5.55797 -16.7718,6.75966 -4.90892,1.80263 -7.90873,2.70387 -8.99951,2.70387 -1.1e-4,0.60086 -1.1e-4,0.90127 0,0.90127 -1.1e-4,0.60087 -1.1e-4,0.90129 0,0.90129 -1.1e-4,0.60087 -1.1e-4,0.90128 0,0.90128 -1.1e-4,0.60087 -1.1e-4,0.90128 0,0.90128 1.63616,-0.60082 6.40865,-1.80256 14.31742,-3.60512 7.9085,-1.80253 17.86248,-3.60509 29.86193,-5.40772 11.99918,-1.20169 20.45323,-0.45049 25.3622,2.25318 4.90866,2.70391 7.09032,6.15884 6.54508,10.3648 -0.5456,1.20175 -0.95463,2.10302 -1.22718,2.70385 -0.27279,0.60086 -0.95469,1.20174 -2.04536,1.80256 -1.09098,0.60087 -2.18187,0.90128 -3.27254,0.90128 -1.09099,0 -1.90912,0 -2.4544,0 -3.81815,-0.60081 -8.45421,-1.05148 -13.90831,-1.35196 -5.45437,-0.30052 -11.8631,-0.14997 -19.22616,0.4505 -7.36338,0.60088 -13.49938,1.50218 -18.40808,2.70386 -5.45437,1.20175 -10.09043,2.40344 -13.90833,3.60514 -1.63638,1.20168 -4.09079,3.75534 -7.36322,7.66087 -3.27265,3.9056 -7.36327,8.86264 -12.27204,14.87122 -4.90886,6.00852 -8.99954,10.21452 -12.27204,12.61797 -3.27258,2.40338 -5.99969,3.60513 -8.18135,3.60513 -5e-5,0 -0.13614,0 -0.40894,0 -0.27279,0 -0.40893,0 -0.40893,0 -0.54549,0 -0.81819,0 -0.81813,0 -6e-5,0 -0.27281,0 -0.81815,0 -1.63632,-1.80257 -2.18176,-4.20602 -1.63627,-7.21027 -5e-5,-3.00431 1.90892,-6.30898 5.72695,-9.91411 3.27249,-4.20602 6.54504,-7.51069 9.81763,-9.91413 2.72705,-2.40344 4.63601,-4.20602 5.72695,-5.4077 -2.18176,0.60087 -5.18161,1.50215 -8.99949,2.70385 -3.2726,1.80257 -7.22693,3.30472 -11.86294,4.50641 -4.63617,1.20171 -8.59051,1.05148 -11.86299,-0.4505 -3.2726,-1.50209 -5.9997,-3.45486 -8.18136,-5.85831 -5e-5,0 -0.13614,0 -0.408938,0 -0.27279,0 -0.40893,0 -0.40893,0 -5e-5,0 -0.13614,-0.14996 -0.40895,-0.45048 -0.27279,-0.30054 -0.40893,-0.4505 -0.40893,-0.4505 2.727108,-1.2017 5.999648,-2.55365 9.817628,-4.05581 3.81793,-1.50211 8.454,-3.15447 13.90831,-4.95703 4.90875,-1.80257 9.54487,-3.60514 13.90831,-5.4077 3.81787,-1.20169 7.09042,-2.4034 9.81761,-3.60514 -1.09093,-0.60082 -2.72719,-1.20169 -4.90881,-1.80257 -2.18176,-0.60081 -4.09072,-1.80256 -5.72695,-3.60513 -2.18176,-1.80251 -3.2726,-3.45488 -3.27254,-4.95708 -6e-5,-1.50211 0.54539,-3.15443 1.63627,-4.95704 -1.63633,-1.20169 -3.81803,-3.90555 -6.54508,-8.11155 -2.72716,-3.60508 -4.90886,-8.71237 -6.54509,-15.32183 -1.63632,-6.60933 -1.90901,-12.01703 -0.81814,-16.22311 1.09079,-4.20589 2.45437,-7.2102 4.09069,-9.01283 1.09077,-0.60076 2.18166,-1.35183 3.27254,-2.25324 1.09078,-0.90117 2.45436,-1.80244 4.09067,-2.70385 1.63623,-0.90117 3.2725,-1.65225 4.90883,-2.25317 1.09077,-0.60076 2.1816,-1.20166 3.27253,-1.80258 -6e-5,-0.60076 0.2728,-1.20163 0.81814,-1.80256 -5e-5,-0.60077 -5e-5,-1.35184 0,-2.25324 -5e-5,-0.90117 -5e-5,-1.65225 0,-2.25318 -5e-5,-0.60076 -5e-5,-1.20164 0,-1.80257 -5e-5,1.2e-4 -5e-5,1.2e-4 0,0 -0.54549,-0.60076 -0.8182,-0.90117 -0.81814,-0.90128 -6e-5,1.1e-4 -0.13614,-0.14997 -0.40893,-0.45049 -0.27281,-0.30054 -0.40894,-0.4505 -0.40894,-0.4505 -1.63632,0.60093 -3.54535,0.30052 -5.72695,-0.90129 -2.18176,-0.60076 -4.36343,-2.10286 -6.54508,-4.50642 -2.18177,-2.40332 -3.54529,-4.5063 -4.09069,-6.30899 -1.09088,-2.40331 -1.90902,-4.20589 -2.45441,-5.4077 1.63623,0.60099 3.5452,0.60099 5.72696,0 1.63621,1.1e-4 3.54518,-1.20158 5.72695,-3.60513 1.63622,-1.80245 2.72704,-3.75522 3.27253,-5.858371 0.54534,-2.102867 0.8181,-4.055635 0.81815,-5.858315 -5e-5,-3.605023 0.95443,-6.759483 2.8635,-9.463502 1.90891,-2.703684 5.04505,-3.154296 9.40854,-1.351906 4.36331,1.802739 7.90855,4.807005 10.63576,9.012844 2.18161,4.206118 3.27242,7.811258 3.27255,10.81539 1.09076,-1.20157 2.72704,-2.403259 4.90883,-3.605122 2.18161,-1.201586 4.63601,-2.703742 7.36322,-4.506422 2.72699,-1.201575 4.77236,-2.70373 6.13604,-4.506422 1.36342,-1.802448 2.04521,-3.604955 2.04531,-5.407692 -1e-4,-0.600712 -1e-4,-1.501995 0,-2.703858 -1e-4,-1.201575 -0.13665,-2.703695 -0.40894,-4.506433 -0.2728,-1.80239 -0.40945,-3.154354 -0.40893,-4.05581 -1.1e-4,-0.901108 -1.1e-4,-1.952595 0,-3.154461 z M 69.903912,106.19579 c 3.272543,-6.0084 8.181358,-10.514808 14.726443,-13.519248 6.545077,-3.004139 12.544727,-2.403265 17.998985,1.802563 5.4542,4.807005 7.36317,10.214715 5.72695,16.223115 -2.18172,5.40781 -5.9997,9.61382 -11.453898,12.61797 -2.18171,1.2018 -4.77246,1.80268 -7.772268,1.80257 -2.999842,1.1e-4 -5.863346,-1.20158 -8.590448,-3.60515 -2.727101,-2.40332 -4.908814,-5.10716 -6.545084,-8.11155 -1.636273,-3.00414 -2.999849,-5.40758 -4.09068,-7.21027 z m 103.085108,0 c -1.09093,-0.60075 -2.59085,-0.60075 -4.49972,0 -1.90912,0.601 -3.68175,1.65248 -5.31793,3.15447 -1.63637,1.50228 -2.59085,3.15464 -2.86345,4.95709 -0.27279,1.80268 0.13614,3.00438 1.22719,3.60513 0.54533,-0.60075 1.22712,-1.35183 2.04536,-2.25323 0.81803,-0.90111 2.04523,-1.95266 3.68161,-3.15447 1.63616,-1.20158 2.8634,-2.25306 3.68163,-3.15452 0.81804,-0.90111 1.49977,-1.95266 2.04531,-3.15447 z m -17.18086,28.84109 c -1.63638,0.60093 -4.09079,1.35201 -7.36322,2.25318 -3.27259,0.90139 -6.27245,2.55375 -8.9995,4.95708 -3.2726,1.80263 -4.36347,3.90566 -3.27254,6.30899 0.54534,2.4035 2.18161,4.80693 4.90881,7.21027 -5e-5,0.60093 0.27281,1.50222 0.81814,2.70385 0.54534,1.20181 1.09077,2.4035 1.63627,3.60514 0.54534,1.80262 1.09078,3.00431 1.63628,3.60513 -5e-5,1.20175 0.27279,1.95283 0.81813,2.25317 0.54534,0.30052 1.36347,0.15055 2.45441,-0.4505 1.09077,-0.6008 2.4543,-1.20163 4.09068,-1.80255 1.09077,-0.60082 2.04526,-1.50211 2.8635,-2.70386 0.81803,-1.20164 1.22707,-2.10293 1.22717,-2.70385 -0.54549,-0.60077 -1.36363,-1.20163 -2.4544,-1.80256 -1.09094,-0.60077 -2.45452,-1.50204 -4.09069,-2.70385 -1.63632,-0.60077 -2.9999,-1.50205 -4.09067,-2.70386 -0.54549,-0.60076 -1.09094,-1.50204 -1.63628,-2.70385 0.54534,-0.60076 1.63623,-1.50204 3.27255,-2.70385 2.18161,-0.60077 4.09057,-1.80251 5.72695,-3.60512 2.1816,-1.20164 3.54518,-2.70375 4.09068,-4.50643 -1.1e-4,-1.20163 -0.5455,-2.70373 -1.63627,-4.50643 z m -87.540519,10.8154 c 4.908814,1.2018 9.13584,3.30479 12.681129,6.30898 3.545237,3.00437 4.908762,7.21032 4.090678,12.61797 -0.818187,5.40776 -2.045364,10.51507 -3.681637,15.32183 -2.181711,4.80688 -3.272541,8.71243 -3.272541,11.71668 0,1.20175 -0.136139,2.70391 -0.408938,4.50642 -0.272799,1.80263 -0.408936,4.0558 -0.408936,6.7596 0,2.70391 0.136137,4.95708 0.408936,6.75966 0.272799,1.80257 0.408938,3.30472 0.408938,4.5064 0.54544,-0.60081 1.09083,-1.65235 1.636271,-3.15451 0.545441,-1.50209 1.227176,-3.00421 2.045365,-4.50642 0.818083,-1.5021 1.499872,-2.85399 2.045313,-4.05574 0.54539,-1.20171 1.09083,-2.40339 1.636272,-3.60514 -0.545442,3.00433 -1.090882,6.60945 -1.636272,10.81541 -0.545441,4.206 -0.818135,9.01283 -0.818135,14.42054 0.545388,6.00857 1.09083,10.96561 1.636271,14.87114 0.545388,3.90561 1.363523,7.36047 2.454406,10.36479 -0.545442,1.80257 -1.909018,3.30467 -4.090677,4.50642 -2.181713,1.2017 -4.908814,0.90129 -8.181358,-0.90128 -3.272542,-2.40344 -5.454254,-4.80689 -6.545085,-7.21027 -1.636271,-3.00431 -2.181713,-5.4077 -1.636271,-7.21027 1.09083,-4.20601 2.045365,-9.31324 2.863501,-15.32182 0.818135,-6.00853 1.227177,-13.21879 1.227177,-21.6308 0,-8.41197 0,-15.62223 0,-21.63081 -0.54544,-6.60934 -0.818136,-12.01704 -0.818136,-16.22311 0,-0.60081 0,-1.8025 0,-3.60514 0,-1.20163 -0.272799,-3.00419 -0.818135,-5.4077 0,-1.80251 -0.136138,-3.45481 -0.408937,-4.95708 -0.272799,-1.50205 -0.408938,-2.85395 -0.408938,-4.05575 z m 78.541029,33.34749 c -6e-5,1.20175 -0.2728,2.4035 -0.81814,3.60514 -0.54549,1.20175 -1.36363,2.40344 -2.45441,3.60513 -1.09093,1.20175 -1.90908,2.40345 -2.45441,3.60514 -1.09094,0.60087 -1.90906,1.20175 -2.4544,1.80256 1.09078,5e-5 2.45435,-0.30052 4.09067,-0.90127 1.63622,-0.60083 3.54519,-1.50211 5.72696,-2.70387 1.63621,-1.8025 2.99974,-3.45487 4.09068,-4.95708 1.09077,-1.50205 1.63616,-2.854 1.63627,-4.05575 -0.5455,6e-5 -1.09094,6e-5 -1.63627,0 -0.5455,6e-5 -1.22729,6e-5 -2.04531,0 -0.81825,6e-5 -1.50004,6e-5 -2.04537,0 -0.5455,6e-5 -1.09094,6e-5 -1.63627,0 z m 57.26951,93.7335 c -2.18181,-3.00432 -4.36353,-6.30905 -6.54508,-9.91412 -2.18182,-3.6052 -4.09079,-7.51073 -5.72696,-11.71669 -1.63637,-4.80689 -2.72725,-9.31329 -3.27254,-13.51926 -0.54554,-4.20601 -0.81823,-8.11154 -0.81813,-11.71668 3.81783,0.60087 8.72663,2.40344 14.72644,5.4077 5.4541,3.00426 9.81746,8.11155 13.09017,15.32182 3.27238,6.60939 3.40873,12.3175 0.40894,17.12439 -3.00002,4.80683 -6.95435,7.81109 -11.863,9.01284 z"
       style="font-size:40px;font-style:normal;font-variant:normal;font-weight:normal;font-stretch:normal;line-height:125%;letter-spacing:0px;word-spacing:0px;fill:#1902b5;fill-opacity:1;stroke:none;font-family:'金梅新毛行國際碼';-inkscape-font-specification:'金梅新毛行國際碼'"
       id="path3019"
       inkscape:connector-curvature="0" />
    <path
       d="m 373.44066,93.260122 c 0.54794,1.22e-4 0.822,1.22e-4 0.82212,0 -1.2e-4,1.22e-4 0.27413,0.150884 0.82211,0.451502 0.54796,0.301189 0.82203,0.452074 0.82213,0.451493 0.54795,0.602321 0.82202,0.903398 0.82213,0.903274 1.09605,0.602322 1.09605,1.656137 0,3.161453 -1.0963,1.505587 -3.01458,3.613286 -5.75486,6.322936 -2.74052,2.71003 -5.06988,4.96818 -6.98805,6.77464 -1.91843,1.80666 -3.15158,3.011 -3.69959,3.61309 1.09604,-1.20423 3.01438,-2.25803 5.75488,-3.16149 2.74029,-0.90312 5.75477,-0.75258 9.04336,0.45149 2.74031,0.60232 4.38457,2.10774 4.93276,4.5164 0.54795,2.40886 0.27414,4.51651 -0.82213,6.32293 -0.54819,0.60233 -1.23331,1.65613 -2.05528,3.16145 -0.82228,1.5056 -1.78141,3.31215 -2.87746,5.41967 -1.09625,2.1078 -1.91838,4.0649 -2.46638,5.87133 -1.09626,1.80667 -1.64435,3.01104 -1.64424,3.61313 2.74029,2.40882 6.85091,4.51645 12.33187,6.32295 5.48069,1.80661 11.78368,3.46263 18.90888,4.96801 7.12494,1.50554 13.42786,2.86048 18.90888,4.06477 5.4807,1.8066 9.86535,3.3121 13.154,4.51639 0.54789,3.01097 -0.82228,5.41974 -4.11063,7.22623 -2.74059,2.40881 -7.94738,3.31211 -15.62037,2.70983 -7.12522,6e-5 -12.88008,-0.60214 -17.26462,-1.80654 -4.93291,-1.20431 -7.94734,-2.40871 -9.04339,-3.61312 -1.64435,-0.60215 -3.42568,-1.50543 -5.34379,-2.70983 -1.91843,-1.2043 -4.24779,-2.55926 -6.9881,-4.06478 -2.74049,-1.50539 -5.06985,-3.01087 -6.98802,-4.5164 -1.91844,-1.50538 -3.6997,-2.55918 -5.34384,-3.16145 -1.09626,6e-5 -2.19247,0.4515 -3.28851,1.3549 -1.09625,0.90339 -2.46647,1.9572 -4.11063,3.16149 -1.64434,1.80661 -3.2886,3.01102 -4.93275,3.61312 -1.09625,1.20447 -1.91838,1.8066 -2.46636,1.80655 2.74035,0.60227 5.20672,2.40881 7.39911,5.41968 2.19226,3.01097 3.42542,7.22627 3.69959,12.6459 0.27415,5.41973 -10e-5,10.23719 -0.82212,14.45246 -0.82223,4.2153 -1.23331,7.52735 -1.23321,9.93605 1.64414,0.60221 3.83651,0.3012 6.57701,-0.90327 2.74029,-0.60216 6.02879,-1.50543 9.8655,-2.70984 3.28838,-1.20435 6.30281,-1.80649 9.04337,-1.80655 2.7403,0.6022 5.20667,1.35494 7.39913,2.25815 2.19219,0.90336 3.83644,2.25824 4.93275,4.06478 1.09604,1.80658 1.09604,3.91426 0,6.32295 -1.64441,3.01099 -3.56269,4.81754 -5.75488,5.41967 -2.74056,0.60223 -4.93286,0.3012 -6.577,-0.90326 -7.1252,-1.20436 -12.74306,0.45148 -16.85354,4.96799 -4.11074,4.51646 -6.16607,11.59211 -6.16597,21.22709 -10e-5,10.23713 -0.82223,18.0655 -2.46637,23.48524 -1.64436,5.41962 -4.93286,8.12944 -9.8655,8.1295 -1.64436,-2.40876 -3.2886,-5.41972 -4.93275,-9.03278 -1.09626,-4.21533 -1.78138,-9.33393 -2.05529,-15.35573 -0.27413,-6.02188 -0.27413,-11.14042 0,-15.35575 0.27411,-4.21531 0.41093,-7.52731 0.41093,-9.93606 -2.19241,0.60221 -5.48091,2.10764 -9.86551,4.5164 -4.38475,2.40876 -9.72854,4.51638 -16.03141,6.32294 -6.30303,1.80656 -11.09877,1.95708 -14.38723,0.45149 -3.28854,-1.50541 -5.20682,-4.06473 -5.75486,-7.67782 3.28845,-2.40876 6.1659,-4.96801 8.63234,-7.67791 2.46632,-2.70976 4.24758,-6.02182 5.34379,-9.93606 1.09608,-3.91413 1.78121,-7.67785 2.05533,-11.29094 0.27412,-3.61306 0.9591,-6.92511 2.0553,-9.93606 -6e-5,-0.60216 0.27412,-1.50545 0.82212,-2.70985 0.54805,-1.20434 1.09609,-2.70978 1.64426,-4.51641 0.54803,-1.20428 0.95906,-2.40868 1.2332,-3.6131 0.27414,-1.20429 0.41094,-2.4087 0.41094,-3.61311 -0.54816,6e-5 -1.64431,-0.30119 -3.2885,-0.90327 -1.64431,-0.60217 -3.6996,-1.50544 -6.16592,-2.70985 -2.46643,-1.20428 -4.2477,-2.10758 -5.34384,-2.70984 -1.0962,-0.60215 -1.64431,-1.20429 -1.64426,-1.80655 -1.0962,0.60226 -2.46642,1.2044 -4.11062,1.80655 -1.0962,1.20442 -2.87746,2.40883 -5.34378,3.61312 -2.46643,1.2044 -4.52178,1.95716 -6.16597,2.25818 -1.64426,0.30118 -3.01448,0.15088 -4.11064,-0.45152 -0.54809,3.61319 -1.3702,8.28012 -2.46637,14.0008 -1.0962,5.72081 -3.15148,11.29108 -6.1659,16.71068 -3.01448,5.41968 -6.98809,9.18333 -11.92084,11.29095 -4.93276,2.10768 -9.59143,3.16151 -13.97613,3.16151 2.19233,-3.01091 4.65872,-7.22624 7.39912,-12.6459 3.28851,-4.81746 6.57701,-10.83928 9.86551,-18.06558 3.83659,-6.62395 6.71399,-12.79636 8.63234,-18.51722 1.91827,-5.72068 3.42546,-10.38764 4.52165,-14.00079 -0.54809,-1.80651 -0.54809,-3.91414 0,-6.32295 0.54805,-2.40865 2.05529,-4.51635 4.52172,-6.32296 2.46632,-1.80642 4.9327,-3.46246 7.39913,-4.96805 2.46633,-1.50538 4.24757,-2.55919 5.34379,-3.16145 -5e-5,-0.60209 -5e-5,-1.05371 0,-1.35495 -5e-5,-0.30119 -0.27414,-0.75263 -0.82213,-1.35489 -5e-5,1.3e-4 -5e-5,-0.30119 0,-0.90327 -0.5481,1e-4 -0.82218,-0.3012 -0.82212,-0.90328 -1.09621,0.60227 -2.19236,1.355 -3.2885,2.25816 -1.09621,0.9034 -2.46644,1.35507 -4.11063,1.35494 -1.64426,1.3e-4 -3.01448,-0.30119 -4.11064,-0.90327 -1.64424,-0.6021 -2.74044,-1.50536 -3.2885,-2.70983 -0.54809,-1.2043 0,-2.70973 1.64426,-4.5164 1.09615,-1.20423 3.01444,-2.70971 5.75488,-4.51638 2.7404,-1.80643 4.65866,-3.61299 5.75487,-5.41967 1.09616,-1.20423 1.09616,-2.70972 0,-4.51639 -1.09621,1.1e-4 -2.19234,-0.30118 -3.2885,-0.9033 -1.64424,-0.60207 -3.2885,-1.80642 -4.93275,-3.6131 -2.19235,-1.80643 -3.83659,-3.61299 -4.93276,-5.41968 -0.54809,-1.204222 -1.09619,-2.107497 -1.64424,-2.709818 1.09615,-0.602031 2.46637,-1.204241 4.11062,-1.806563 1.64425,-0.602031 3.56253,-1.505305 5.75489,-2.709837 2.19229,-1.20424 4.11057,-2.408592 5.75487,-3.613111 1.6442,-1.204241 3.01442,-2.408594 4.11064,-3.613113 -7e-5,-1.20424 -0.13682,-2.408592 -0.41094,-3.613113 -0.27414,-1.20424 -0.41093,-2.55913 -0.41093,-4.064786 -6e-5,-1.505309 0.41093,-2.709661 1.23321,-3.613112 0.82208,-0.903107 1.78121,-1.956922 2.87741,-3.161449 0.54804,0.602321 1.37017,1.505601 2.46639,2.709837 1.09614,1.204525 2.46631,2.408877 4.11061,3.613114 2.19231,1.806727 4.11058,2.710015 5.75487,2.709835 1.0961,0.602321 2.19231,0.602321 3.28851,0 2.19231,0.602321 4.38459,1.806729 6.577,3.613112 1.64421,1.806673 2.74034,4.215434 3.2885,7.226236 1.0961,3.613225 0.95908,6.624193 -0.41093,9.032768 -1.37028,2.40889 -2.6035,4.21544 -3.69958,5.41968 0.54804,1.3e-4 1.37011,1.3e-4 2.46637,0 0.54799,1.3e-4 1.37012,0.15087 2.46638,0.4515 1.09609,0.30119 1.91822,0.75286 2.46637,1.35495 0.54799,0.60231 1.09609,0.90338 1.64424,0.90326 -0.54815,1.20449 -1.64429,2.55942 -3.28849,4.06473 -1.64429,1.5056 -3.56264,3.16163 -5.75487,4.96807 -2.74045,1.80668 -4.6588,3.46269 -5.75488,4.96799 -1.09621,1.50559 -1.64431,2.8605 -1.64426,4.06479 1.64421,-0.6021 3.56247,-1.20429 5.75489,-1.80657 2.19229,-0.60207 4.52161,-0.60207 6.98808,0 2.46626,0.60228 4.52161,0.75286 6.1659,0.4515 1.64421,-0.30119 3.01439,-1.05369 4.11063,-2.25818 -5e-5,-0.60208 -0.13733,-1.50535 -0.41092,-2.70981 -0.27414,-1.20423 -0.68521,-2.55919 -1.23322,-4.06478 -0.54814,-1.50531 -0.95923,-2.70967 -1.23316,-3.61313 -0.27413,-0.90309 -0.41093,-1.95697 -0.41093,-3.16142 -5e-5,-1.20424 -5e-5,-3.31193 0,-6.32297 -0.54815,-3.01078 -0.54815,-6.623904 0,-10.839338 -5e-5,-4.215144 0.54799,-7.527189 1.64424,-9.936062 0.54801,-2.408592 1.37014,-4.516219 2.46639,-6.32295 0.548,1.74e-4 1.37012,0.30119 2.46637,0.903279 1.0961,0.60232 2.46627,1.204525 4.11063,1.80656 1.0961,0.602322 2.19226,1.355058 3.28851,2.258166 1.09609,0.903454 1.91822,1.65619 2.46637,2.258221 -1.1e-4,-0.602031 -1.1e-4,-1.053702 0,-1.354946 -1.1e-4,-0.300608 -1.1e-4,-0.752569 0,-1.354891 -1.1e-4,-0.602031 0.27413,-1.204228 0.82213,-1.80655 -1.1e-4,1.67e-4 -1.1e-4,-0.301192 0,-0.903282 1.64414,1.74e-4 3.83648,-0.602032 6.57699,-1.806557 2.7403,-1.204236 5.75477,-2.709662 9.04339,-4.516391 3.28839,-1.806383 6.30286,-2.8602 9.04338,-3.161506 2.74029,-0.30061 5.06964,-0.150304 6.98809,0.451496 1.91812,0.602321 3.28833,1.806731 4.11061,3.613114 0.82198,1.806729 0.2736,4.516566 -1.64425,8.129508 -1.91843,3.613291 -3.97376,6.323061 -6.16595,8.129512 -1.64436,2.40887 -3.0146,3.914356 -4.11063,4.516387 z m -21.37526,2.709836 c 0.54799,-0.60203 1.0961,-1.053691 1.64425,-1.354946 0.548,-0.300607 1.2331,-0.752569 2.05533,-1.35489 0.82202,-0.602032 1.50709,-1.20423 2.0553,-1.806552 0.54799,-0.602029 0.82201,-0.903163 0.82211,-0.903274 -0.54821,-0.60203 -1.09624,-1.053703 -1.64424,-1.354946 -0.54821,-0.300618 -1.37028,-0.75257 -2.46638,-1.354892 -1.09625,1.12e-4 -1.91838,-0.301189 -2.46637,-0.903287 -0.54815,1.24e-4 -1.09625,-0.301189 -1.64426,-0.903274 -10e-5,0.602321 0.13681,1.355059 0.41094,2.258166 0.27413,0.903454 0.41093,1.957267 0.41093,3.161507 -1e-4,1.20452 0.1368,2.107807 0.41092,2.709838 0.27415,0.602322 0.41095,1.20452 0.41095,1.80655 z m 9.04338,26.195072 c -0.54822,0.60233 -1.37034,1.35501 -2.46639,2.25817 -1.09624,0.90339 -2.46647,1.9572 -4.11062,3.16151 -1.64435,1.20445 -3.15159,2.10774 -4.52166,2.70981 -1.37033,0.60226 -2.32947,1.20449 -2.87746,1.80658 1.09609,1.20446 2.46626,1.80667 4.11062,1.80655 1.64415,1.2e-4 3.56247,-0.60209 5.75488,-1.80655 1.64414,-1.80645 2.74029,-3.613 3.2885,-5.41968 0.54801,-1.80644 0.82202,-3.31192 0.82213,-4.51639 z m -47.68326,15.35573 c -1.09621,0.60228 -2.46644,1.20447 -4.11063,1.80656 -1.64431,0.60226 -3.01453,1.20446 -4.11063,1.80656 -0.54815,1.20446 -0.54815,2.40881 0,3.6131 0.54805,1.80664 1.23316,3.16158 2.05534,4.06473 0.82206,0.90341 1.91822,1.355 3.2885,1.35494 1.37013,6e-5 2.19226,-0.60208 2.46638,-1.80655 0.27412,-1.2043 0.68499,-2.70977 1.23316,-4.51638 -5e-5,-1.2043 0.27411,-2.40865 0.82213,-3.61311 -5e-5,1.1e-4 -5e-5,1.1e-4 0,0 -0.54817,-0.6021 -0.82218,-1.05377 -0.82213,-1.35495 -5e-5,-0.30119 -0.13681,-0.6021 -0.41094,-0.90329 -0.27411,-0.3012 -0.41093,-0.45149 -0.41093,-0.45149 z m 31.24075,5.41968 c -0.54815,1.2e-4 -1.09626,-0.15031 -1.64425,-0.45149 -0.54816,-0.3012 -1.23327,-0.60209 -2.05528,-0.90329 -0.82223,-0.30119 -1.78138,-0.75262 -2.87747,-1.35489 -0.54815,1.2e-4 -0.82218,-0.30119 -0.82213,-0.90328 -1.64431,1.20446 -3.28855,2.40883 -4.93275,3.61312 -2.1924,1.20446 -4.38475,2.7099 -6.57701,4.5164 -2.7405,1.80661 -4.65877,3.61316 -5.75485,5.41966 -1.64431,1.20448 -3.01455,2.40883 -4.11064,3.61312 1.6442,-0.6021 3.69948,-1.50537 6.16597,-2.70984 2.46626,-1.20429 5.34372,-2.40864 8.63227,-3.61313 2.74035,-1.80648 5.48076,-3.31192 8.22127,-4.51638 2.19224,-1.20429 4.11052,-2.10756 5.75487,-2.70983 z m -46.86114,7.22621 c -5e-5,6e-5 -0.27414,-0.15029 -0.82212,-0.45147 -0.5481,-0.3012 -1.09621,-0.6021 -1.64425,-0.9033 -0.54811,-0.30118 -0.82218,-0.45148 -0.82213,-0.45148 -0.54809,5e-5 -0.82217,-0.3012 -0.82212,-0.90328 -1.09621,1.20446 -2.19236,2.40881 -3.2885,3.6131 -1.64431,1.20448 -2.87746,2.7099 -3.69954,4.5164 -0.82218,1.80661 -1.50729,3.46264 -2.05534,4.968 -0.54809,1.50555 -1.0962,2.8605 -1.64426,4.06479 1.09617,7e-5 2.46638,-0.3012 4.11063,-0.90328 1.6442,-0.60215 3.28846,-2.10758 4.93275,-4.51639 2.19229,-1.80651 3.83655,-3.61306 4.93276,-5.41967 0.54803,-1.2043 0.82207,-2.40864 0.82212,-3.61311 z m 47.68327,11.74264 c -1.09626,6e-5 -2.05539,0.1503 -2.8774,0.45149 -0.82225,0.30119 -1.78138,0.90339 -2.87749,1.80655 -1.09625,0.9034 -1.91837,1.80668 -2.46637,2.70984 -0.54815,0.9034 -0.82218,1.65608 -0.82213,2.25824 -5e-5,0.60224 0.41094,0.90333 1.23322,0.90327 0.82203,6e-5 1.64415,0.1503 2.46638,0.45148 0.82203,0.3012 1.50714,0.15091 2.05529,-0.45148 0.54798,6e-5 1.09609,-0.30119 1.64425,-0.90327 -1e-4,5e-5 -1e-4,-0.30121 0,-0.90329 -1e-4,-0.60215 -1e-4,-1.50542 0,-2.70983 0.54799,-0.60216 0.82202,-1.20429 0.82212,-1.80657 -10e-5,-0.60213 0.27413,-1.20429 0.82213,-1.80656 z m -9.86551,18.06557 c -1.6443,-1.8065 -3.56263,-2.4087 -5.75489,-1.80656 -2.19238,0.60226 -3.56262,2.25822 -4.11062,4.96799 -0.54814,2.70991 0.27414,4.66701 2.46638,5.87135 2.19226,1.20442 4.38459,1.20442 6.57701,0 0.548,6e-5 1.09609,6e-5 1.64424,0 0.54801,6e-5 1.37013,-0.3012 2.46639,-0.90329 1.09609,6e-5 1.91822,-0.15029 2.46637,-0.45148 0.54798,-0.30119 1.09609,-0.4515 1.64425,-0.4515 -10e-5,6e-5 -10e-5,-0.30118 0,-0.90328 -10e-5,-0.60215 -10e-5,-1.05376 0,-1.35495 -10e-5,-0.3012 -10e-5,-0.75268 0,-1.35488 -10e-5,-0.60215 0.27414,-0.90323 0.82213,-0.90328 -0.54816,5e-5 -0.82223,5e-5 -0.82213,0 -0.54816,5e-5 -0.95925,-0.15029 -1.23315,-0.4515 -0.27414,-0.30118 -0.54822,-0.45148 -0.82213,-0.45148 -0.27413,5e-5 -0.41146,5e-5 -0.41093,0 -0.54816,5e-5 -0.95925,0.30117 -1.23317,0.90327 -0.27412,0.60222 -0.68521,1.2044 -1.23322,1.80656 -0.54815,0.6022 -1.09625,0.90333 -1.64425,0.90328 -0.54815,0.6022 -0.82218,0.90332 -0.82213,0.90326 -5e-5,6e-5 -5e-5,-0.30118 0,-0.90326 -5e-5,-0.60216 -5e-5,-1.20436 0,-1.80656 -5e-5,-0.60215 -5e-5,-1.20437 0,-1.80655 -5e-5,-0.60216 -5e-5,-1.2043 0,-1.80657 z m -5.75489,17.16228 c -5e-5,6e-5 -0.27411,-0.1503 -0.82211,-0.45148 -0.54815,-0.30119 -1.09625,-0.45149 -1.64426,-0.45149 -0.54814,6e-5 -0.82218,6e-5 -0.82213,0 -0.54814,6e-5 -0.82217,6e-5 -0.82212,0 -5e-5,6e-5 -5e-5,0.1503 0,0.45149 -5e-5,0.30118 -5e-5,0.90333 0,1.80655 -5e-5,0.90333 -5e-5,1.355 0,1.35494 -5e-5,0.60222 -5e-5,0.90334 0,0.90329 -5e-5,5e-5 0.27414,5e-5 0.82212,0 -5e-5,-0.60216 0.27415,-1.20435 0.82213,-1.80657 0.54801,6e-5 1.09611,-0.30118 1.64426,-0.90327 0.548,-0.60214 0.82206,-0.90322 0.82211,-0.90327 z m 13.15402,1.80657 c -1.09627,0.60221 -2.6035,1.35496 -4.52166,2.25816 -1.91838,0.90333 -4.11073,2.10768 -6.577,3.61311 -2.46649,1.50555 -4.52178,2.86043 -6.16598,4.06478 -1.64429,1.80657 -2.7405,3.31204 -3.28848,4.51639 1.64419,-0.60214 3.56246,-1.20435 5.75486,-1.80655 2.74036,0 5.34374,-0.60214 7.81023,-1.80656 2.46627,-1.20435 4.24753,-2.86036 5.34378,-4.96806 1.09609,-2.10756 1.64415,-4.06466 1.64425,-5.87127 -10e-5,5e-5 -10e-5,5e-5 0,0 z"
       style="font-size:40px;font-style:normal;font-variant:normal;font-weight:normal;font-stretch:normal;line-height:125%;letter-spacing:0px;word-spacing:0px;fill:#1902b5;fill-opacity:1;stroke:none;font-family:'金梅新毛行國際碼';-inkscape-font-specification:'金梅新毛行國際碼'"
       id="path3021"
       inkscape:connector-curvature="0" />
    <path
       sodipodi:type="arc"
       style="fill:#ffffff;fill-opacity:1;stroke:none"
       id="path2996"
       sodipodi:cx="-121.00423"
       sodipodi:cy="141.43697"
       sodipodi:rx="55.194916"
       sodipodi:ry="55.460274"
       d="m -65.809311,141.43697 c 0,30.62986 -24.711605,55.46027 -55.194919,55.46027 -30.48331,0 -55.19491,-24.83041 -55.19491,-55.46027 0,-30.62987 24.7116,-55.460278 55.19491,-55.460278 30.483314,0 55.194919,24.830408 55.194919,55.460278 z"
       transform="matrix(1.5988791,0,0,1.5912291,443.47113,187.19138)" />
    <path
       sodipodi:nodetypes="cccccccccccccccccccccc"
       d="m 168.65005,384.30743 18.75625,0 0,3.44555 -4.68125,0 c -0.9895,0.0275 -1.48425,0.23784 -1.48422,0.63113 -3e-5,0.50989 0.087,1.14377 0.26067,1.90163 l 13.35319,35.62528 13.33205,-35.32924 c 0.1895,-0.70715 0.2841,-1.35337 0.28417,-1.93863 -7e-5,-0.25213 -0.14332,-0.44059 -0.42977,-0.56535 -0.49478,-0.21651 -1.33791,-0.32478 -5.46798,-0.32482 l 0,-3.44555 15.04663,0 0,3.44555 c -4.03939,4e-5 -2.5475,0.21385 -3.52438,0.64142 -0.78444,0.44683 -1.43024,1.1883 -1.93746,2.22439 l -17.58506,43.57512 -2.98487,0 -16.96506,-43.77453 c -0.6012,-1.01417 -1.34723,-1.76247 -2.23807,-2.24496 -0.68106,-0.28091 -0.76959,-0.4214 -3.73484,-0.42144 z"
       style="font-size:40px;font-style:normal;font-weight:bold;line-height:125%;letter-spacing:0px;word-spacing:0px;fill:#ff0000;fill-opacity:1;stroke:none;font-family:Sans;-inkscape-font-specification:Sans Bold"
       id="path3044"
       inkscape:connector-curvature="0" />
    <path
       d="m 246.09221,383.1019 c 7.5202,5e-5 13.81715,2.25871 18.89082,6.77597 4.95277,4.63371 7.42917,10.68032 7.42924,18.13989 -7e-5,7.85578 -2.62306,14.26324 -7.86896,19.22244 -4.94966,4.84007 -11.2015,7.26012 -18.75553,7.26012 -7.51544,0 -13.6336,-2.56481 -18.35446,-7.6944 -4.90614,-4.84282 -7.3592,-11.10555 -7.35918,-18.78816 -2e-5,-6.88468 2.56822,-12.90845 7.70467,-18.07133 4.60167,-4.56297 10.70613,-6.84448 18.3134,-6.84453 z m -0.30443,47.98237 c 5.12996,0 9.55289,-1.88879 13.26875,-5.66638 3.92839,-3.75818 5.89261,-8.9494 5.89267,-15.5737 -6e-5,-7.5856 -1.96911,-13.52349 -5.90715,-17.81363 -3.18436,-3.67505 -7.50098,-5.51257 -12.94984,-5.51262 -4.94159,5e-5 -9.17606,1.68382 -12.70343,5.05132 -3.90108,3.94246 -5.85159,9.42529 -5.85158,16.4485 -1e-5,6.90964 1.77495,12.44648 5.3249,16.61055 3.70775,4.30397 8.01632,6.45596 12.92568,6.45596 z"
       style="font-size:40px;font-style:normal;font-weight:bold;line-height:125%;letter-spacing:0px;word-spacing:0px;fill:#ff0000;fill-opacity:1;stroke:none;font-family:Sans;-inkscape-font-specification:Sans Bold"
       id="path3046"
       inkscape:connector-curvature="0" />
    <path
       d="m 274.91096,384.30743 22.05607,0 0,3.40667 c -3.75642,4e-5 -5.96409,0.14837 -6.62302,0.44514 -0.57941,0.36863 -0.86909,0.85374 -0.86907,1.45535 l 0,16.69596 27.38504,0 0,-16.69596 c -4e-5,-0.68426 -0.29053,-1.15651 -0.87144,-1.41673 -0.58899,-0.32245 -2.79586,-0.48372 -6.62064,-0.48376 l 0,-3.40667 21.98204,0 0,3.40667 c -3.70711,4e-5 -5.88932,0.14837 -6.54663,0.44514 -0.57942,0.36863 -0.86911,0.85374 -0.86905,1.45535 l 0,38.00798 c -6e-5,0.88758 0.23073,1.51295 0.69238,1.87611 0.9486,0.52713 3.18969,0.7907 6.7233,0.79068 l 0,3.34164 -21.98204,0 0,-3.34164 c 3.26611,2e-5 5.4284,-0.23441 6.48693,-0.70328 0.67005,-0.28998 1.00511,-0.94449 1.00515,-1.96351 l 0,-17.97039 -27.38504,0 0,17.97039 c -2e-5,0.88758 0.24031,1.52041 0.72103,1.89847 0.92157,0.51223 3.17858,0.76834 6.77106,0.76832 l 0,3.34164 -22.05607,0 0,-3.34164 c 3.25181,2e-5 5.28838,-0.1924 6.10971,-0.57725 0.91998,-0.37536 1.37998,-1.07187 1.38,-2.08954 l 0,-38.00798 c -2e-5,-0.68426 -0.2897,-1.15651 -0.86907,-1.41673 -0.58893,-0.32245 -2.79582,-0.48372 -6.62064,-0.48376 z"
       style="font-size:40px;font-style:normal;font-weight:bold;line-height:125%;letter-spacing:0px;word-spacing:0px;fill:#ff0000;fill-opacity:1;stroke:none;font-family:Sans;-inkscape-font-specification:Sans Bold"
       id="path3048"
       inkscape:connector-curvature="0" />
  </g>
</svg>
